<?xml version="1.0" encoding="utf-8"?>
<!-- Generator: Adobe Illustrator 25.0.1, SVG Export Plug-In . SVG Version: 6.00 Build 0)  -->
<svg version="1.1" id="Layer_1" xmlns="http://www.w3.org/2000/svg" xmlns:xlink="http://www.w3.org/1999/xlink" x="0px" y="0px"
	 viewBox="0 0 48 48" style="enable-background:new 0 0 48 48;" xml:space="preserve">
<style type="text/css">
	.st0{fill:#FFFFFF;}
</style>
<path class="st0" d="M22.6,34h3v-8.3H34v-3h-8.4V14h-3v8.7H14v3h8.6V34z M24,44c-2.7,0-5.3-0.5-7.8-1.6c-2.4-1-4.6-2.5-6.4-4.3
	s-3.2-3.9-4.3-6.4S4,26.7,4,23.9c0-2.7,0.5-5.3,1.6-7.8s2.5-4.5,4.3-6.3s3.9-3.2,6.4-4.3S21.3,4,24,4c2.7,0,5.3,0.5,7.8,1.6
	s4.6,2.5,6.3,4.3c1.8,1.8,3.2,3.9,4.3,6.3c1.1,2.4,1.6,5,1.6,7.8c0,2.7-0.5,5.3-1.6,7.8c-1,2.4-2.5,4.6-4.3,6.4
	c-1.8,1.8-3.9,3.2-6.4,4.3C29.4,43.5,26.8,44,24,44z M24,41c4.7,0,8.7-1.7,12-5c3.3-3.3,5-7.3,5-12.1c0-4.7-1.6-8.7-5-12
	c-3.3-3.3-7.3-5-12-5c-4.7,0-8.7,1.7-12,4.9s-5,7.3-5,12c0,4.7,1.7,8.7,5,12C15.3,39.3,19.3,41,24,41z"/>
</svg>
