<svg xmlns="http://www.w3.org/2000/svg" viewBox="0 0 324.86 90.17"><defs><style>.cls-1,.cls-2{fill:#2b3990;}.cls-1{fill-rule:evenodd;}</style></defs><g id="Layer_2" data-name="Layer 2"><g id="Layer_1-2" data-name="Layer 1"><polygon class="cls-1" points="37.24 7.55 37.24 37.24 0 0 0 82.62 21.92 82.62 21.92 52.93 59.16 90.17 59.16 7.55 37.24 7.55"/><rect class="cls-2" x="71.14" y="7.55" width="21.92" height="75.07"/><polygon class="cls-2" points="159.52 7.55 140.42 43.47 121.32 7.55 96.49 7.55 140.42 90.17 184.35 7.55 159.52 7.55"/><polygon class="cls-1" points="209.7 63.55 209.7 53.2 233.58 53.2 233.58 36.96 209.7 36.96 209.7 26.61 233.58 26.61 233.58 7.55 187.77 7.55 187.77 7.55 187.77 82.62 233.58 82.62 233.58 63.55 209.7 63.55"/><path class="cls-2" d="M300,82.62h24.83L280.93,0,237,82.62h24.83l4.55-8.56h29.1ZM273.88,60l7.05-13.26L288,60Z"/><path class="cls-2" d="M297.06,7.68V7.62a1.21,1.21,0,0,0,1-1.11,1.16,1.16,0,0,0-.49-1A2.45,2.45,0,0,0,296,5.15a14,14,0,0,0-1.79.14V10h1.08V8.11h.52c.59,0,.88.22,1,.71a3.7,3.7,0,0,0,.37,1.13h1.14a4,4,0,0,1-.34-1.13C297.74,8.19,297.52,7.82,297.06,7.68Zm-1.28-.34h-.51V6a3.16,3.16,0,0,1,.6-.06c.68,0,1,.29,1,.71S296.38,7.34,295.78,7.34Z"/><path class="cls-2" d="M296,2.88h0a4.67,4.67,0,1,0,4.77,4.66A4.69,4.69,0,0,0,296,2.88Zm0,8.38a3.63,3.63,0,0,1-3.63-3.72A3.63,3.63,0,0,1,296,3.82h0a3.61,3.61,0,0,1,3.58,3.74A3.57,3.57,0,0,1,296,11.26Z"/></g></g></svg>