<?xml version="1.0" encoding="utf-8"?>
<!-- Generator: Adobe Illustrator 25.0.1, SVG Export Plug-In . SVG Version: 6.00 Build 0)  -->
<svg version="1.1" id="Layer_1" xmlns="http://www.w3.org/2000/svg" xmlns:xlink="http://www.w3.org/1999/xlink" x="0px" y="0px"
	 viewBox="0 0 48 48" style="enable-background:new 0 0 48 48;" xml:space="preserve">
<style type="text/css">
	.st0{fill:#415B80;}
</style>
<path class="st0" d="M22.6,37.9h3V27.9l4.1,4.1l2.1-2.1L24,22.2L16.3,30l2.1,2.1l4.2-4.2L22.6,37.9z M11,44c-0.8,0-1.5-0.3-2.1-0.9
	C8.3,42.5,8,41.8,8,41V7c0-0.8,0.3-1.5,0.9-2.1C9.5,4.3,10.2,4,11,4h18l11,10.9v26c0,0.8-0.3,1.5-0.9,2.1C38.5,43.7,37.8,44,37,44
	H11z M27.5,16.3V7H11v34h26V16.3H27.5z M11,7v9.3V7v34V7z"/>
</svg>
